<svg xmlns="http://www.w3.org/2000/svg" width="560" height="2914" viewBox="0 0 560 2914" font-family="Inter, 'Helvetica Neue', Arial, sans-serif">
<defs><filter id="sh" x="-10%" y="-10%" width="120%" height="130%"><feDropShadow dx="0" dy="2" stdDeviation="4" flood-color="#0F172A" flood-opacity="0.06"/></filter></defs>
<rect width="560" height="2914" fill="#FFFFFF"/>
<text x="0" y="54" font-size="24" font-weight="800" fill="#0F172A">Redisson Feature Map</text>
<rect x="0" y="66" width="32" height="18" rx="5" fill="#E51E25"/>
<text x="16.0" y="78.6" font-size="10" font-weight="800" letter-spacing="0.06em" text-anchor="middle" fill="#FFFFFF">PRO</text>
<text x="38" y="79.0" font-size="13" fill="#64748B">= Redisson PRO only</text>
<text x="0" y="125" font-size="15" font-weight="700" letter-spacing="0.04em" fill="#3B6CB5">DATA STRUCTURES</text>
<text x="0" y="987" font-size="15" font-weight="700" letter-spacing="0.04em" fill="#4F8A6B">CONCURRENCY &amp; MESSAGING</text>
<text x="0" y="1373" font-size="15" font-weight="700" letter-spacing="0.04em" fill="#B5894A">DISTRIBUTED SERVICES</text>
<text x="0" y="1631" font-size="15" font-weight="700" letter-spacing="0.04em" fill="#A2566B">INTEGRATIONS &amp; APIS</text>
<text x="0" y="2573" font-size="15" font-weight="700" letter-spacing="0.04em" fill="#5B5F97">DEPLOYMENT &amp; OPERATIONS</text>
<rect x="0" y="136" width="560" height="238" rx="16" fill="#F2F6FB" stroke="#3B6CB5" stroke-opacity="0.25" stroke-width="1.5" filter="url(#sh)"/>
<rect x="0" y="136" width="7" height="238" rx="3.5" fill="#3B6CB5"/>
<text x="26" y="174" font-size="19" font-weight="700" fill="#0F172A">Objects</text>
<rect x="20" y="188" width="129" height="34" rx="9" fill="#E2EBF5" stroke="#B7CBE5" stroke-width="1"/>
<text x="84.5" y="209.5" font-size="13.5" font-weight="500" text-anchor="middle" fill="#284D80">Object holder</text>
<rect x="159" y="188" width="184" height="34" rx="9" fill="#E2EBF5" stroke="#B7CBE5" stroke-width="1"/>
<text x="251.0" y="209.5" font-size="13.5" font-weight="500" text-anchor="middle" fill="#284D80">Binary stream holder</text>
<rect x="353" y="188" width="168" height="34" rx="9" fill="#E2EBF5" stroke="#B7CBE5" stroke-width="1"/>
<text x="437.0" y="209.5" font-size="13.5" font-weight="500" text-anchor="middle" fill="#284D80">JSON object holder</text>
<rect x="20" y="232" width="161" height="34" rx="9" fill="#E2EBF5" stroke="#B7CBE5" stroke-width="1"/>
<text x="100.5" y="253.5" font-size="13.5" font-weight="500" text-anchor="middle" fill="#284D80">Geospatial holder</text>
<rect x="191" y="232" width="74" height="34" rx="9" fill="#E2EBF5" stroke="#B7CBE5" stroke-width="1"/>
<text x="228.0" y="253.5" font-size="13.5" font-weight="500" text-anchor="middle" fill="#284D80">BitSet</text>
<rect x="275" y="232" width="121" height="34" rx="9" fill="#E2EBF5" stroke="#B7CBE5" stroke-width="1"/>
<text x="335.5" y="253.5" font-size="13.5" font-weight="500" text-anchor="middle" fill="#284D80">Bloom filter</text>
<rect x="20" y="276" width="129" height="34" rx="9" fill="#E2EBF5" stroke="#B7CBE5" stroke-width="1"/>
<text x="84.5" y="297.5" font-size="13.5" font-weight="500" text-anchor="middle" fill="#284D80">Cuckoo filter</text>
<rect x="159" y="276" width="114" height="34" rx="9" fill="#E2EBF5" stroke="#B7CBE5" stroke-width="1"/>
<text x="216.0" y="297.5" font-size="13.5" font-weight="500" text-anchor="middle" fill="#284D80">HyperLogLog</text>
<rect x="283" y="276" width="114" height="34" rx="9" fill="#E2EBF5" stroke="#B7CBE5" stroke-width="1"/>
<text x="340.0" y="297.5" font-size="13.5" font-weight="500" text-anchor="middle" fill="#284D80">RateLimiter</text>
<rect x="20" y="320" width="161" height="34" rx="9" fill="#E2EBF5" stroke="#B7CBE5" stroke-width="1"/>
<text x="100.5" y="341.5" font-size="13.5" font-weight="500" text-anchor="middle" fill="#284D80">GCRA Rate Limiter</text>
<rect x="0" y="396" width="560" height="150" rx="16" fill="#F2F6FB" stroke="#3B6CB5" stroke-opacity="0.25" stroke-width="1.5" filter="url(#sh)"/>
<rect x="0" y="396" width="7" height="150" rx="3.5" fill="#3B6CB5"/>
<text x="26" y="434" font-size="19" font-weight="700" fill="#0F172A">Counters</text>
<rect x="20" y="448" width="121" height="34" rx="9" fill="#E2EBF5" stroke="#B7CBE5" stroke-width="1"/>
<text x="80.5" y="469.5" font-size="13.5" font-weight="500" text-anchor="middle" fill="#284D80">Id generator</text>
<rect x="151" y="448" width="106" height="34" rx="9" fill="#E2EBF5" stroke="#B7CBE5" stroke-width="1"/>
<text x="204.0" y="469.5" font-size="13.5" font-weight="500" text-anchor="middle" fill="#284D80">AtomicLong</text>
<rect x="267" y="448" width="121" height="34" rx="9" fill="#E2EBF5" stroke="#B7CBE5" stroke-width="1"/>
<text x="327.5" y="469.5" font-size="13.5" font-weight="500" text-anchor="middle" fill="#284D80">AtomicDouble</text>
<rect x="398" y="448" width="98" height="34" rx="9" fill="#E2EBF5" stroke="#B7CBE5" stroke-width="1"/>
<text x="447.0" y="469.5" font-size="13.5" font-weight="500" text-anchor="middle" fill="#284D80">LongAdder</text>
<rect x="20" y="492" width="114" height="34" rx="9" fill="#E2EBF5" stroke="#B7CBE5" stroke-width="1"/>
<text x="77.0" y="513.5" font-size="13.5" font-weight="500" text-anchor="middle" fill="#284D80">DoubleAdder</text>
<rect x="0" y="568" width="560" height="194" rx="16" fill="#F2F6FB" stroke="#3B6CB5" stroke-opacity="0.25" stroke-width="1.5" filter="url(#sh)"/>
<rect x="0" y="568" width="7" height="194" rx="3.5" fill="#3B6CB5"/>
<text x="26" y="606" font-size="19" font-weight="700" fill="#0F172A">Collections</text>
<rect x="20" y="620" width="64" height="34" rx="9" fill="#E2EBF5" stroke="#B7CBE5" stroke-width="1"/>
<text x="52.0" y="641.5" font-size="13.5" font-weight="500" text-anchor="middle" fill="#284D80">Map</text>
<rect x="94" y="620" width="90" height="34" rx="9" fill="#E2EBF5" stroke="#B7CBE5" stroke-width="1"/>
<text x="139.0" y="641.5" font-size="13.5" font-weight="500" text-anchor="middle" fill="#284D80">Multimap</text>
<rect x="194" y="620" width="150" height="34" rx="9" fill="#E2EBF5" stroke="#B7CBE5" stroke-width="1"/>
<text x="208" y="641.5" font-size="13.5" font-weight="500" text-anchor="start" fill="#284D80">JSON Store</text>
<rect x="298" y="628.0" width="32" height="18" rx="5" fill="#E51E25"/>
<text x="314.0" y="640.6" font-size="10" font-weight="800" letter-spacing="0.06em" text-anchor="middle" fill="#FFFFFF">PRO</text>
<rect x="354" y="620" width="64" height="34" rx="9" fill="#E2EBF5" stroke="#B7CBE5" stroke-width="1"/>
<text x="386.0" y="641.5" font-size="13.5" font-weight="500" text-anchor="middle" fill="#284D80">Set</text>
<rect x="428" y="620" width="98" height="34" rx="9" fill="#E2EBF5" stroke="#B7CBE5" stroke-width="1"/>
<text x="477.0" y="641.5" font-size="13.5" font-weight="500" text-anchor="middle" fill="#284D80">SortedSet</text>
<rect x="20" y="664" width="145" height="34" rx="9" fill="#E2EBF5" stroke="#B7CBE5" stroke-width="1"/>
<text x="92.5" y="685.5" font-size="13.5" font-weight="500" text-anchor="middle" fill="#284D80">ScoredSortedSet</text>
<rect x="175" y="664" width="121" height="34" rx="9" fill="#E2EBF5" stroke="#B7CBE5" stroke-width="1"/>
<text x="235.5" y="685.5" font-size="13.5" font-weight="500" text-anchor="middle" fill="#284D80">LexSortedSet</text>
<rect x="306" y="664" width="64" height="34" rx="9" fill="#E2EBF5" stroke="#B7CBE5" stroke-width="1"/>
<text x="338.0" y="685.5" font-size="13.5" font-weight="500" text-anchor="middle" fill="#284D80">List</text>
<rect x="380" y="664" width="67" height="34" rx="9" fill="#E2EBF5" stroke="#B7CBE5" stroke-width="1"/>
<text x="413.5" y="685.5" font-size="13.5" font-weight="500" text-anchor="middle" fill="#284D80">Array</text>
<rect x="20" y="708" width="114" height="34" rx="9" fill="#E2EBF5" stroke="#B7CBE5" stroke-width="1"/>
<text x="77.0" y="729.5" font-size="13.5" font-weight="500" text-anchor="middle" fill="#284D80">Time Series</text>
<rect x="144" y="708" width="106" height="34" rx="9" fill="#E2EBF5" stroke="#B7CBE5" stroke-width="1"/>
<text x="197.0" y="729.5" font-size="13.5" font-weight="500" text-anchor="middle" fill="#284D80">Vector Set</text>
<rect x="260" y="708" width="189" height="34" rx="9" fill="#E2EBF5" stroke="#B7CBE5" stroke-width="1"/>
<text x="274" y="729.5" font-size="13.5" font-weight="500" text-anchor="start" fill="#284D80">BitVector Store</text>
<rect x="403" y="716.0" width="32" height="18" rx="5" fill="#E51E25"/>
<text x="419.0" y="728.6" font-size="10" font-weight="800" letter-spacing="0.06em" text-anchor="middle" fill="#FFFFFF">PRO</text>
<rect x="0" y="784" width="560" height="150" rx="16" fill="#F2F6FB" stroke="#3B6CB5" stroke-opacity="0.25" stroke-width="1.5" filter="url(#sh)"/>
<rect x="0" y="784" width="7" height="150" rx="3.5" fill="#3B6CB5"/>
<text x="26" y="822" font-size="19" font-weight="700" fill="#0F172A">Queues</text>
<rect x="20" y="836" width="67" height="34" rx="9" fill="#E2EBF5" stroke="#B7CBE5" stroke-width="1"/>
<text x="53.5" y="857.5" font-size="13.5" font-weight="500" text-anchor="middle" fill="#284D80">Queue</text>
<rect x="97" y="836" width="67" height="34" rx="9" fill="#E2EBF5" stroke="#B7CBE5" stroke-width="1"/>
<text x="130.5" y="857.5" font-size="13.5" font-weight="500" text-anchor="middle" fill="#284D80">Deque</text>
<rect x="174" y="836" width="137" height="34" rx="9" fill="#E2EBF5" stroke="#B7CBE5" stroke-width="1"/>
<text x="242.5" y="857.5" font-size="13.5" font-weight="500" text-anchor="middle" fill="#284D80">Priority Queue</text>
<rect x="321" y="836" width="137" height="34" rx="9" fill="#E2EBF5" stroke="#B7CBE5" stroke-width="1"/>
<text x="389.5" y="857.5" font-size="13.5" font-weight="500" text-anchor="middle" fill="#284D80">Priority Deque</text>
<rect x="20" y="880" width="74" height="34" rx="9" fill="#E2EBF5" stroke="#B7CBE5" stroke-width="1"/>
<text x="57.0" y="901.5" font-size="13.5" font-weight="500" text-anchor="middle" fill="#284D80">Stream</text>
<rect x="104" y="880" width="114" height="34" rx="9" fill="#E2EBF5" stroke="#B7CBE5" stroke-width="1"/>
<text x="161.0" y="901.5" font-size="13.5" font-weight="500" text-anchor="middle" fill="#284D80">Ring Buffer</text>
<rect x="228" y="880" width="137" height="34" rx="9" fill="#E2EBF5" stroke="#B7CBE5" stroke-width="1"/>
<text x="296.5" y="901.5" font-size="13.5" font-weight="500" text-anchor="middle" fill="#284D80">Transfer Queue</text>
<rect x="0" y="998" width="560" height="150" rx="16" fill="#F1F8F4" stroke="#4F8A6B" stroke-opacity="0.25" stroke-width="1.5" filter="url(#sh)"/>
<rect x="0" y="998" width="7" height="150" rx="3.5" fill="#4F8A6B"/>
<text x="26" y="1036" font-size="19" font-weight="700" fill="#0F172A">Locks &amp; Synchronizers</text>
<rect x="20" y="1050" width="64" height="34" rx="9" fill="#DEEEE4" stroke="#AAD3BC" stroke-width="1"/>
<text x="52.0" y="1071.5" font-size="13.5" font-weight="500" text-anchor="middle" fill="#2E5A44">Lock</text>
<rect x="94" y="1050" width="98" height="34" rx="9" fill="#DEEEE4" stroke="#AAD3BC" stroke-width="1"/>
<text x="143.0" y="1071.5" font-size="13.5" font-weight="500" text-anchor="middle" fill="#2E5A44">Fair Lock</text>
<rect x="202" y="1050" width="98" height="34" rx="9" fill="#DEEEE4" stroke="#AAD3BC" stroke-width="1"/>
<text x="251.0" y="1071.5" font-size="13.5" font-weight="500" text-anchor="middle" fill="#2E5A44">MultiLock</text>
<rect x="310" y="1050" width="129" height="34" rx="9" fill="#DEEEE4" stroke="#AAD3BC" stroke-width="1"/>
<text x="374.5" y="1071.5" font-size="13.5" font-weight="500" text-anchor="middle" fill="#2E5A44">ReadWriteLock</text>
<rect x="20" y="1094" width="98" height="34" rx="9" fill="#DEEEE4" stroke="#AAD3BC" stroke-width="1"/>
<text x="69.0" y="1115.5" font-size="13.5" font-weight="500" text-anchor="middle" fill="#2E5A44">Semaphore</text>
<rect x="128" y="1094" width="137" height="34" rx="9" fill="#DEEEE4" stroke="#AAD3BC" stroke-width="1"/>
<text x="196.5" y="1115.5" font-size="13.5" font-weight="500" text-anchor="middle" fill="#2E5A44">CountDownLatch</text>
<rect x="275" y="1094" width="98" height="34" rx="9" fill="#DEEEE4" stroke="#AAD3BC" stroke-width="1"/>
<text x="324.0" y="1115.5" font-size="13.5" font-weight="500" text-anchor="middle" fill="#2E5A44">Spin Lock</text>
<rect x="383" y="1094" width="114" height="34" rx="9" fill="#DEEEE4" stroke="#AAD3BC" stroke-width="1"/>
<text x="440.0" y="1115.5" font-size="13.5" font-weight="500" text-anchor="middle" fill="#2E5A44">Fenced Lock</text>
<rect x="0" y="1170" width="560" height="150" rx="16" fill="#F1F8F4" stroke="#4F8A6B" stroke-opacity="0.25" stroke-width="1.5" filter="url(#sh)"/>
<rect x="0" y="1170" width="7" height="150" rx="3.5" fill="#4F8A6B"/>
<text x="26" y="1208" font-size="19" font-weight="700" fill="#0F172A">Messaging</text>
<rect x="20" y="1222" width="181" height="34" rx="9" fill="#DEEEE4" stroke="#AAD3BC" stroke-width="1"/>
<text x="34" y="1243.5" font-size="13.5" font-weight="500" text-anchor="start" fill="#2E5A44">Reliable Queue</text>
<rect x="155" y="1230.0" width="32" height="18" rx="5" fill="#E51E25"/>
<text x="171.0" y="1242.6" font-size="10" font-weight="800" letter-spacing="0.06em" text-anchor="middle" fill="#FFFFFF">PRO</text>
<rect x="211" y="1222" width="197" height="34" rx="9" fill="#DEEEE4" stroke="#AAD3BC" stroke-width="1"/>
<text x="225" y="1243.5" font-size="13.5" font-weight="500" text-anchor="start" fill="#2E5A44">Reliable Pub/Sub</text>
<rect x="362" y="1230.0" width="32" height="18" rx="5" fill="#E51E25"/>
<text x="378.0" y="1242.6" font-size="10" font-weight="800" letter-spacing="0.06em" text-anchor="middle" fill="#FFFFFF">PRO</text>
<rect x="20" y="1266" width="126" height="34" rx="9" fill="#DEEEE4" stroke="#AAD3BC" stroke-width="1"/>
<text x="34" y="1287.5" font-size="13.5" font-weight="500" text-anchor="start" fill="#2E5A44">JMS API</text>
<rect x="100" y="1274.0" width="32" height="18" rx="5" fill="#E51E25"/>
<text x="116.0" y="1286.6" font-size="10" font-weight="800" letter-spacing="0.06em" text-anchor="middle" fill="#FFFFFF">PRO</text>
<rect x="156" y="1266" width="129" height="34" rx="9" fill="#DEEEE4" stroke="#AAD3BC" stroke-width="1"/>
<text x="220.5" y="1287.5" font-size="13.5" font-weight="500" text-anchor="middle" fill="#2E5A44">Pub/Sub topic</text>
<rect x="295" y="1266" width="192" height="34" rx="9" fill="#DEEEE4" stroke="#AAD3BC" stroke-width="1"/>
<text x="391.0" y="1287.5" font-size="13.5" font-weight="500" text-anchor="middle" fill="#2E5A44">Sharded Pub/Sub topic</text>
<rect x="0" y="1384" width="560" height="194" rx="16" fill="#FBF6EE" stroke="#B5894A" stroke-opacity="0.25" stroke-width="1.5" filter="url(#sh)"/>
<rect x="0" y="1384" width="7" height="194" rx="3.5" fill="#B5894A"/>
<text x="26" y="1422" font-size="19" font-weight="700" fill="#0F172A">Services</text>
<rect x="20" y="1436" width="137" height="34" rx="9" fill="#F2E6D2" stroke="#DEC59A" stroke-width="1"/>
<text x="88.5" y="1457.5" font-size="13.5" font-weight="500" text-anchor="middle" fill="#6F5021">Remote service</text>
<rect x="167" y="1436" width="176" height="34" rx="9" fill="#F2E6D2" stroke="#DEC59A" stroke-width="1"/>
<text x="255.0" y="1457.5" font-size="13.5" font-weight="500" text-anchor="middle" fill="#6F5021">Live Object service</text>
<rect x="353" y="1436" width="153" height="34" rx="9" fill="#F2E6D2" stroke="#DEC59A" stroke-width="1"/>
<text x="429.5" y="1457.5" font-size="13.5" font-weight="500" text-anchor="middle" fill="#6F5021">Executor service</text>
<rect x="20" y="1480" width="231" height="34" rx="9" fill="#F2E6D2" stroke="#DEC59A" stroke-width="1"/>
<text x="135.5" y="1501.5" font-size="13.5" font-weight="500" text-anchor="middle" fill="#6F5021">Scheduled executor service</text>
<rect x="261" y="1480" width="161" height="34" rx="9" fill="#F2E6D2" stroke="#DEC59A" stroke-width="1"/>
<text x="341.5" y="1501.5" font-size="13.5" font-weight="500" text-anchor="middle" fill="#6F5021">MapReduce service</text>
<rect x="20" y="1524" width="137" height="34" rx="9" fill="#F2E6D2" stroke="#DEC59A" stroke-width="1"/>
<text x="88.5" y="1545.5" font-size="13.5" font-weight="500" text-anchor="middle" fill="#6F5021">RediSearch API</text>
<rect x="0" y="1642" width="560" height="194" rx="16" fill="#FBF2F5" stroke="#A2566B" stroke-opacity="0.25" stroke-width="1.5" filter="url(#sh)"/>
<rect x="0" y="1642" width="7" height="194" rx="3.5" fill="#A2566B"/>
<text x="26" y="1680" font-size="19" font-weight="700" fill="#0F172A">Spring Framework</text>
<rect x="20" y="1694" width="176" height="34" rx="9" fill="#F2DEE6" stroke="#DEB0C0" stroke-width="1"/>
<text x="108.0" y="1715.5" font-size="13.5" font-weight="500" text-anchor="middle" fill="#6E2B3E">Spring Boot Starter</text>
<rect x="206" y="1694" width="121" height="34" rx="9" fill="#F2DEE6" stroke="#DEB0C0" stroke-width="1"/>
<text x="266.5" y="1715.5" font-size="13.5" font-weight="500" text-anchor="middle" fill="#6E2B3E">Spring Cache</text>
<rect x="337" y="1694" width="137" height="34" rx="9" fill="#F2DEE6" stroke="#DEB0C0" stroke-width="1"/>
<text x="405.5" y="1715.5" font-size="13.5" font-weight="500" text-anchor="middle" fill="#6E2B3E">Spring Session</text>
<rect x="20" y="1738" width="231" height="34" rx="9" fill="#F2DEE6" stroke="#DEB0C0" stroke-width="1"/>
<text x="135.5" y="1759.5" font-size="13.5" font-weight="500" text-anchor="middle" fill="#6E2B3E">Spring Transaction Manager</text>
<rect x="261" y="1738" width="220" height="34" rx="9" fill="#F2DEE6" stroke="#DEB0C0" stroke-width="1"/>
<text x="275" y="1759.5" font-size="13.5" font-weight="500" text-anchor="start" fill="#6E2B3E">Spring Cloud Stream</text>
<rect x="435" y="1746.0" width="32" height="18" rx="5" fill="#E51E25"/>
<text x="451.0" y="1758.6" font-size="10" font-weight="800" letter-spacing="0.06em" text-anchor="middle" fill="#FFFFFF">PRO</text>
<rect x="20" y="1782" width="161" height="34" rx="9" fill="#F2DEE6" stroke="#DEB0C0" stroke-width="1"/>
<text x="100.5" y="1803.5" font-size="13.5" font-weight="500" text-anchor="middle" fill="#6E2B3E">Spring Data Redis</text>
<rect x="191" y="1782" width="244" height="34" rx="9" fill="#F2DEE6" stroke="#DEB0C0" stroke-width="1"/>
<text x="205" y="1803.5" font-size="13.5" font-weight="500" text-anchor="start" fill="#6E2B3E">Spring AI Vector Store</text>
<rect x="389" y="1790.0" width="32" height="18" rx="5" fill="#E51E25"/>
<text x="405.0" y="1802.6" font-size="10" font-weight="800" letter-spacing="0.06em" text-anchor="middle" fill="#FFFFFF">PRO</text>
<rect x="0" y="1858" width="560" height="106" rx="16" fill="#FBF2F5" stroke="#A2566B" stroke-opacity="0.25" stroke-width="1.5" filter="url(#sh)"/>
<rect x="0" y="1858" width="7" height="106" rx="3.5" fill="#A2566B"/>
<text x="26" y="1896" font-size="19" font-weight="700" fill="#0F172A">Microservices</text>
<rect x="20" y="1910" width="82" height="34" rx="9" fill="#F2DEE6" stroke="#DEB0C0" stroke-width="1"/>
<text x="61.0" y="1931.5" font-size="13.5" font-weight="500" text-anchor="middle" fill="#6E2B3E">Helidon</text>
<rect x="112" y="1910" width="98" height="34" rx="9" fill="#F2DEE6" stroke="#DEB0C0" stroke-width="1"/>
<text x="161.0" y="1931.5" font-size="13.5" font-weight="500" text-anchor="middle" fill="#6E2B3E">Micronaut</text>
<rect x="220" y="1910" width="82" height="34" rx="9" fill="#F2DEE6" stroke="#DEB0C0" stroke-width="1"/>
<text x="261.0" y="1931.5" font-size="13.5" font-weight="500" text-anchor="middle" fill="#6E2B3E">Quarkus</text>
<rect x="0" y="1986" width="560" height="106" rx="16" fill="#FBF2F5" stroke="#A2566B" stroke-opacity="0.25" stroke-width="1.5" filter="url(#sh)"/>
<rect x="0" y="1986" width="7" height="106" rx="3.5" fill="#A2566B"/>
<text x="26" y="2024" font-size="19" font-weight="700" fill="#0F172A">Web Session Management</text>
<rect x="20" y="2038" width="192" height="34" rx="9" fill="#F2DEE6" stroke="#DEB0C0" stroke-width="1"/>
<text x="116.0" y="2059.5" font-size="13.5" font-weight="500" text-anchor="middle" fill="#6E2B3E">Apache Tomcat Session</text>
<rect x="222" y="2038" width="137" height="34" rx="9" fill="#F2DEE6" stroke="#DEB0C0" stroke-width="1"/>
<text x="290.5" y="2059.5" font-size="13.5" font-weight="500" text-anchor="middle" fill="#6E2B3E">Spring Session</text>
<rect x="369" y="2038" width="161" height="34" rx="9" fill="#F2DEE6" stroke="#DEB0C0" stroke-width="1"/>
<text x="449.5" y="2059.5" font-size="13.5" font-weight="500" text-anchor="middle" fill="#6E2B3E">Micronaut Session</text>
<rect x="0" y="2114" width="560" height="150" rx="16" fill="#FBF2F5" stroke="#A2566B" stroke-opacity="0.25" stroke-width="1.5" filter="url(#sh)"/>
<rect x="0" y="2114" width="7" height="150" rx="3.5" fill="#A2566B"/>
<text x="26" y="2152" font-size="19" font-weight="700" fill="#0F172A">Cache API Implementations</text>
<rect x="20" y="2166" width="121" height="34" rx="9" fill="#F2DEE6" stroke="#DEB0C0" stroke-width="1"/>
<text x="80.5" y="2187.5" font-size="13.5" font-weight="500" text-anchor="middle" fill="#6E2B3E">Spring Cache</text>
<rect x="151" y="2166" width="184" height="34" rx="9" fill="#F2DEE6" stroke="#DEB0C0" stroke-width="1"/>
<text x="243.0" y="2187.5" font-size="13.5" font-weight="500" text-anchor="middle" fill="#6E2B3E">JCache API (JSR-107)</text>
<rect x="345" y="2166" width="145" height="34" rx="9" fill="#F2DEE6" stroke="#DEB0C0" stroke-width="1"/>
<text x="417.5" y="2187.5" font-size="13.5" font-weight="500" text-anchor="middle" fill="#6E2B3E">Hibernate Cache</text>
<rect x="20" y="2210" width="129" height="34" rx="9" fill="#F2DEE6" stroke="#DEB0C0" stroke-width="1"/>
<text x="84.5" y="2231.5" font-size="13.5" font-weight="500" text-anchor="middle" fill="#6E2B3E">MyBatis Cache</text>
<rect x="159" y="2210" width="129" height="34" rx="9" fill="#F2DEE6" stroke="#DEB0C0" stroke-width="1"/>
<text x="223.5" y="2231.5" font-size="13.5" font-weight="500" text-anchor="middle" fill="#6E2B3E">Quarkus Cache</text>
<rect x="298" y="2210" width="145" height="34" rx="9" fill="#F2DEE6" stroke="#DEB0C0" stroke-width="1"/>
<text x="370.5" y="2231.5" font-size="13.5" font-weight="500" text-anchor="middle" fill="#6E2B3E">Micronaut Cache</text>
<rect x="0" y="2286" width="560" height="106" rx="16" fill="#FBF2F5" stroke="#A2566B" stroke-opacity="0.25" stroke-width="1.5" filter="url(#sh)"/>
<rect x="0" y="2286" width="7" height="106" rx="3.5" fill="#A2566B"/>
<text x="26" y="2324" font-size="19" font-weight="700" fill="#0F172A">Programming APIs</text>
<rect x="20" y="2338" width="184" height="34" rx="9" fill="#F2DEE6" stroke="#DEB0C0" stroke-width="1"/>
<text x="112.0" y="2359.5" font-size="13.5" font-weight="500" text-anchor="middle" fill="#6E2B3E">Reactive Streams API</text>
<rect x="214" y="2338" width="114" height="34" rx="9" fill="#F2DEE6" stroke="#DEB0C0" stroke-width="1"/>
<text x="271.0" y="2359.5" font-size="13.5" font-weight="500" text-anchor="middle" fill="#6E2B3E">RxJava3 API</text>
<rect x="338" y="2338" width="153" height="34" rx="9" fill="#F2DEE6" stroke="#DEB0C0" stroke-width="1"/>
<text x="414.5" y="2359.5" font-size="13.5" font-weight="500" text-anchor="middle" fill="#6E2B3E">Asynchronous API</text>
<rect x="0" y="2414" width="560" height="106" rx="16" fill="#FBF2F5" stroke="#A2566B" stroke-opacity="0.25" stroke-width="1.5" filter="url(#sh)"/>
<rect x="0" y="2414" width="7" height="106" rx="3.5" fill="#A2566B"/>
<text x="26" y="2452" font-size="19" font-weight="700" fill="#0F172A">Transactions &amp; Batching</text>
<rect x="20" y="2466" width="153" height="34" rx="9" fill="#F2DEE6" stroke="#DEB0C0" stroke-width="1"/>
<text x="96.5" y="2487.5" font-size="13.5" font-weight="500" text-anchor="middle" fill="#6E2B3E">Transactions API</text>
<rect x="183" y="2466" width="189" height="34" rx="9" fill="#F2DEE6" stroke="#DEB0C0" stroke-width="1"/>
<text x="197" y="2487.5" font-size="13.5" font-weight="500" text-anchor="start" fill="#6E2B3E">XA Transactions</text>
<rect x="326" y="2474.0" width="32" height="18" rx="5" fill="#E51E25"/>
<text x="342.0" y="2486.6" font-size="10" font-weight="800" letter-spacing="0.06em" text-anchor="middle" fill="#FFFFFF">PRO</text>
<rect x="382" y="2466" width="106" height="34" rx="9" fill="#F2DEE6" stroke="#DEB0C0" stroke-width="1"/>
<text x="435.0" y="2487.5" font-size="13.5" font-weight="500" text-anchor="middle" fill="#6E2B3E">Pipelining</text>
<rect x="0" y="2584" width="560" height="194" rx="16" fill="#F4F4FA" stroke="#5B5F97" stroke-opacity="0.25" stroke-width="1.5" filter="url(#sh)"/>
<rect x="0" y="2584" width="7" height="194" rx="3.5" fill="#5B5F97"/>
<text x="26" y="2622" font-size="19" font-weight="700" fill="#0F172A">Deployments</text>
<rect x="20" y="2636" width="74" height="34" rx="9" fill="#E5E6F3" stroke="#BDBFE0" stroke-width="1"/>
<text x="57.0" y="2657.5" font-size="13.5" font-weight="500" text-anchor="middle" fill="#3A3D6B">Single</text>
<rect x="104" y="2636" width="90" height="34" rx="9" fill="#E5E6F3" stroke="#BDBFE0" stroke-width="1"/>
<text x="149.0" y="2657.5" font-size="13.5" font-weight="500" text-anchor="middle" fill="#3A3D6B">Sentinel</text>
<rect x="204" y="2636" width="82" height="34" rx="9" fill="#E5E6F3" stroke="#BDBFE0" stroke-width="1"/>
<text x="245.0" y="2657.5" font-size="13.5" font-weight="500" text-anchor="middle" fill="#3A3D6B">Cluster</text>
<rect x="296" y="2636" width="106" height="34" rx="9" fill="#E5E6F3" stroke="#BDBFE0" stroke-width="1"/>
<text x="349.0" y="2657.5" font-size="13.5" font-weight="500" text-anchor="middle" fill="#3A3D6B">Replicated</text>
<rect x="412" y="2636" width="111" height="34" rx="9" fill="#E5E6F3" stroke="#BDBFE0" stroke-width="1"/>
<text x="426" y="2657.5" font-size="13.5" font-weight="500" text-anchor="start" fill="#3A3D6B">Proxy</text>
<rect x="477" y="2644.0" width="32" height="18" rx="5" fill="#E51E25"/>
<text x="493.0" y="2656.6" font-size="10" font-weight="800" letter-spacing="0.06em" text-anchor="middle" fill="#FFFFFF">PRO</text>
<rect x="20" y="2680" width="220" height="34" rx="9" fill="#E5E6F3" stroke="#BDBFE0" stroke-width="1"/>
<text x="34" y="2701.5" font-size="13.5" font-weight="500" text-anchor="start" fill="#3A3D6B">Advanced Replicated</text>
<rect x="194" y="2688.0" width="32" height="18" rx="5" fill="#E51E25"/>
<text x="210.0" y="2700.6" font-size="10" font-weight="800" letter-spacing="0.06em" text-anchor="middle" fill="#FFFFFF">PRO</text>
<rect x="250" y="2680" width="173" height="34" rx="9" fill="#E5E6F3" stroke="#BDBFE0" stroke-width="1"/>
<text x="264" y="2701.5" font-size="13.5" font-weight="500" text-anchor="start" fill="#3A3D6B">Multi Cluster</text>
<rect x="377" y="2688.0" width="32" height="18" rx="5" fill="#E51E25"/>
<text x="393.0" y="2700.6" font-size="10" font-weight="800" letter-spacing="0.06em" text-anchor="middle" fill="#FFFFFF">PRO</text>
<rect x="20" y="2724" width="181" height="34" rx="9" fill="#E5E6F3" stroke="#BDBFE0" stroke-width="1"/>
<text x="34" y="2745.5" font-size="13.5" font-weight="500" text-anchor="start" fill="#3A3D6B">Multi Sentinel</text>
<rect x="155" y="2732.0" width="32" height="18" rx="5" fill="#E51E25"/>
<text x="171.0" y="2744.6" font-size="10" font-weight="800" letter-spacing="0.06em" text-anchor="middle" fill="#FFFFFF">PRO</text>
<rect x="0" y="2800" width="560" height="106" rx="16" fill="#F4F4FA" stroke="#5B5F97" stroke-opacity="0.25" stroke-width="1.5" filter="url(#sh)"/>
<rect x="0" y="2800" width="7" height="106" rx="3.5" fill="#5B5F97"/>
<text x="26" y="2838" font-size="19" font-weight="700" fill="#0F172A">Security &amp; Monitoring</text>
<rect x="20" y="2852" width="228" height="34" rx="9" fill="#E5E6F3" stroke="#BDBFE0" stroke-width="1"/>
<text x="34" y="2873.5" font-size="13.5" font-weight="500" text-anchor="start" fill="#3A3D6B">Passwords encryption</text>
<rect x="202" y="2860.0" width="32" height="18" rx="5" fill="#E51E25"/>
<text x="218.0" y="2872.6" font-size="10" font-weight="800" letter-spacing="0.06em" text-anchor="middle" fill="#FFFFFF">PRO</text>
<rect x="258" y="2852" width="173" height="34" rx="9" fill="#E5E6F3" stroke="#BDBFE0" stroke-width="1"/>
<text x="272" y="2873.5" font-size="13.5" font-weight="500" text-anchor="start" fill="#3A3D6B">Observability</text>
<rect x="385" y="2860.0" width="32" height="18" rx="5" fill="#E51E25"/>
<text x="401.0" y="2872.6" font-size="10" font-weight="800" letter-spacing="0.06em" text-anchor="middle" fill="#FFFFFF">PRO</text>
</svg>